<?xml version="1.0" encoding="UTF-8" standalone="no"?>
<!-- Created with Inkscape (http://www.inkscape.org/) -->

<svg
   width="63.999996"
   height="64"
   viewBox="0 0 16.933332 16.933334"
   version="1.1"
   id="svg5"
   xmlns="http://www.w3.org/2000/svg"
   xmlns:svg="http://www.w3.org/2000/svg">
  <defs
     id="defs2" />
  <path
     style="display:none;fill:none;stroke:#000000;stroke-width:1.11125;stroke-linecap:round;stroke-linejoin:miter;stroke-dasharray:none;stroke-opacity:1"
     d="m 2.0101601,11.014011 12.9957279,0.0073"
     id="path4" />
  <path
     style="display:none;fill:none;stroke:#9175ff;stroke-width:1.11125;stroke-linecap:round;stroke-linejoin:miter;stroke-dasharray:none;stroke-dashoffset:0;stroke-opacity:1"
     d="m 1.9991117,14.998046 c 0.2927896,-5.4e-4 1.5744136,0.0045 1.9920325,0.0018 2.0010323,-0.01294 2.0353342,-1.334203 4.4892166,-6.5071695 2.3814592,-5.0202934 2.6484332,-6.490652 4.5410662,-6.4932764 0.358341,-4.969e-4 1.61559,8.517e-4 1.981183,-0.00321"
     id="path6" />
  <path
     style="display:none;fill:none;stroke:#008efc;stroke-width:1.11125;stroke-linecap:round;stroke-linejoin:miter;stroke-dasharray:none;stroke-opacity:1"
     d="m 2.0060925,11.014571 c 0.00518,-0.402256 4.866e-4,-1.1942474 0.0031,-1.9876564 C 2.025531,4.0565913 5.909882,3.005287 8.4781471,8.4657345 10.910162,13.636498 14.998184,12.785986 15.001295,8.0022121 c 3.34e-4,-0.5131703 0.0057,-1.396904 6.88e-4,-1.9979072"
     id="path3" />
  <path
     style="display:none;fill:none;stroke:#008efc;stroke-width:1.11125;stroke-linecap:round;stroke-linejoin:miter;stroke-dasharray:none;stroke-opacity:1"
     d="M 2.0019834,15.002665 C 4.5719789,4.2748981 13.076949,12.468438 15.003801,2.0158435"
     id="path5" />
  <path
     style="display:none;fill:none;stroke:#000000;stroke-width:1.11125;stroke-linecap:round;stroke-linejoin:miter;stroke-dasharray:none;stroke-opacity:1"
     d="M 2.0012444,14.991778 14.991778,1.94858"
     id="path7" />
  <path
     style="display:none;fill:none;stroke:#000000;stroke-width:1.11125;stroke-linecap:round;stroke-linejoin:miter;stroke-dasharray:none;stroke-opacity:1"
     d="m 2.0028404,13.000597 c 3.1604573,-7.4753 5.9873647,-8.9970556 10.9998726,-8.9964353 0.963693,1.193e-4 1.223878,-0.00491 2.000218,-0.00388"
     id="path8" />
  <path
     style="fill:none;stroke:#000000;stroke-width:1.11125;stroke-linecap:round;stroke-linejoin:miter;stroke-dasharray:none;stroke-opacity:1"
     d="M 15.002931,4.0001422 C 11.842474,11.475442 9.0155663,12.997198 4.0030584,12.996578 c -0.963693,-1.2e-4 -1.223878,0.0049 -2.000218,0.0039"
     id="path9" />
</svg>
